<svg id="Layer_1" height="512" viewBox="0 0 512 512" width="512" xmlns="http://www.w3.org/2000/svg" data-name="Layer 1"><path d="m501 30.79v88.03a19.779 19.779 0 0 1 -19.78 19.78h-126.09a19.775 19.775 0 0 1 -19.79-19.78v-5.79a6.833 6.833 0 0 0 -5.52-6.78c-25.44-4.49-31.06-22.25-31.06-22.25-.21-.13-.06-.26.37-.38 6.46-1.81 36.21 1.16 36.21-26.3v-26.54a19.788 19.788 0 0 1 19.79-19.78h126.09a19.785 19.785 0 0 1 19.78 19.79z" fill="#e87187"/><path d="m501 393.18v88.04a19.779 19.779 0 0 1 -19.78 19.78h-126.09a19.781 19.781 0 0 1 -19.79-19.78v-5.79a6.817 6.817 0 0 0 -5.52-6.78c-25.44-4.5-31.06-22.26-31.06-22.26-.21-.13-.06-.25.37-.37 6.46-1.81 36.21 1.16 36.21-26.3v-26.54a19.781 19.781 0 0 1 19.79-19.78h126.09a19.785 19.785 0 0 1 19.78 19.78z" fill="#f3ce7d"/><path d="m212.87 264.82c.43.12.58.25.37.38 0 0-5.62 17.76-31.06 22.25a6.833 6.833 0 0 0 -5.52 6.78v5.79a19.781 19.781 0 0 1 -19.79 19.78h-126.09a19.779 19.779 0 0 1 -19.78-19.78v-88.04a19.779 19.779 0 0 1 19.78-19.78h126.09a19.788 19.788 0 0 1 19.79 19.78v26.54c0 27.46 29.75 24.49 36.21 26.3z" fill="#5fcda4"/><path d="m41 300.02v-88.04a19.951 19.951 0 0 1 19.78-19.98h-30a19.951 19.951 0 0 0 -19.78 19.98v88.04a19.951 19.951 0 0 0 19.78 19.98h30a19.951 19.951 0 0 1 -19.78-19.98z" fill="#4da07e"/><g fill="#ad5e73"><path d="m466.177 69.492h-4.217a6 6 0 1 1 0-12h4.217a6 6 0 0 1 0 12z"/><path d="m444.132 69.492h-16.832a6 6 0 1 1 0-12h16.83a6 6 0 0 1 0 12z"/><path d="m410.936 69.492h-39.747a6 6 0 1 1 0-12h39.747a6 6 0 0 1 0 12z"/><path d="m466.177 46.873h-20.165a6 6 0 0 1 0-12h20.165a6 6 0 0 1 0 12z"/><path d="m428.185 46.873h-30.78a6 6 0 0 1 0-12h30.78a6 6 0 0 1 0 12z"/><path d="m381.039 46.873h-9.85a6 6 0 0 1 0-12h9.85a6 6 0 0 1 0 12z"/><path d="m466.177 92.111h-20.165a6 6 0 0 1 0-12h20.165a6 6 0 0 1 0 12z"/><path d="m428.185 92.111h-30.78a6 6 0 0 1 0-12h30.78a6 6 0 1 1 0 12z"/><path d="m381.039 92.111h-9.85a6 6 0 0 1 0-12h9.85a6 6 0 0 1 0 12z"/><path d="m466.177 114.73h-4.217a6 6 0 1 1 0-12h4.217a6 6 0 0 1 0 12z"/><path d="m444.132 114.73h-16.832a6 6 0 0 1 0-12h16.83a6 6 0 0 1 0 12z"/><path d="m410.936 114.73h-39.747a6 6 0 0 1 0-12h39.747a6 6 0 0 1 0 12z"/></g><path d="m466.177 431.889h-4.217a6 6 0 1 1 0-12h4.217a6 6 0 0 1 0 12z" fill="#bfa267"/><path d="m444.132 431.889h-16.832a6 6 0 0 1 0-12h16.83a6 6 0 0 1 0 12z" fill="#bfa267"/><path d="m410.936 431.889h-39.747a6 6 0 1 1 0-12h39.747a6 6 0 1 1 0 12z" fill="#bfa267"/><path d="m466.177 409.27h-20.165a6 6 0 1 1 0-12h20.165a6 6 0 0 1 0 12z" fill="#bfa267"/><path d="m428.185 409.27h-30.78a6 6 0 0 1 0-12h30.78a6 6 0 0 1 0 12z" fill="#bfa267"/><path d="m381.039 409.27h-9.85a6 6 0 0 1 0-12h9.85a6 6 0 0 1 0 12z" fill="#bfa267"/><path d="m466.177 454.508h-20.165a6 6 0 0 1 0-12h20.165a6 6 0 0 1 0 12z" fill="#bfa267"/><path d="m428.185 454.508h-30.78a6 6 0 0 1 0-12h30.78a6 6 0 0 1 0 12z" fill="#bfa267"/><path d="m381.039 454.508h-9.85a6 6 0 0 1 0-12h9.85a6 6 0 0 1 0 12z" fill="#bfa267"/><path d="m466.177 477.127h-4.217a6 6 0 0 1 0-12h4.217a6 6 0 0 1 0 12z" fill="#bfa267"/><path d="m444.132 477.127h-16.832a6 6 0 0 1 0-12h16.83a6 6 0 0 1 0 12z" fill="#bfa267"/><path d="m410.936 477.127h-39.747a6 6 0 0 1 0-12h39.747a6 6 0 0 1 0 12z" fill="#bfa267"/><path d="m50.04 250.69h-4.217a6 6 0 1 1 0-12h4.217a6 6 0 1 1 0 12z" fill="#3e7c61"/><path d="m84.7 250.69h-16.832a6 6 0 1 1 0-12h16.832a6 6 0 0 1 0 12z" fill="#3e7c61"/><path d="m140.811 250.69h-39.747a6 6 0 0 1 0-12h39.747a6 6 0 0 1 0 12z" fill="#3e7c61"/><path d="m65.988 228.071h-20.165a6 6 0 0 1 0-12h20.165a6 6 0 0 1 0 12z" fill="#3e7c61"/><path d="m114.6 228.071h-30.785a6 6 0 1 1 0-12h30.785a6 6 0 0 1 0 12z" fill="#3e7c61"/><path d="m140.811 228.071h-9.85a6 6 0 0 1 0-12h9.85a6 6 0 0 1 0 12z" fill="#3e7c61"/><path d="m65.988 273.31h-20.165a6 6 0 1 1 0-12h20.165a6 6 0 0 1 0 12z" fill="#3e7c61"/><path d="m114.6 273.31h-30.785a6 6 0 0 1 0-12h30.785a6 6 0 0 1 0 12z" fill="#3e7c61"/><path d="m140.811 273.31h-9.85a6 6 0 0 1 0-12h9.85a6 6 0 0 1 0 12z" fill="#3e7c61"/><path d="m50.04 295.929h-4.217a6 6 0 1 1 0-12h4.217a6 6 0 1 1 0 12z" fill="#3e7c61"/><path d="m84.7 295.929h-16.832a6 6 0 1 1 0-12h16.832a6 6 0 0 1 0 12z" fill="#3e7c61"/><path d="m140.811 295.929h-39.747a6 6 0 1 1 0-12h39.747a6 6 0 1 1 0 12z" fill="#3e7c61"/><path d="m251 110h12v122h-12z" fill="#6994fe"/><path d="m251 282h12v132h-12z" fill="#6994fe"/><path d="m279.057 133.381a6 6 0 0 1 -6-6v-4.712a6 6 0 1 1 12 0v4.712a6 6 0 0 1 -6 6z" fill="#d4e1f4"/><path d="m279.057 220.085a6 6 0 0 1 -6-6v-64.179a6 6 0 0 1 12 0v64.179a6 6 0 0 1 -6 6z" fill="#d4e1f4"/><circle cx="257.914" cy="83.734" fill="#a5e2fb" r="30.883"/><circle cx="257.914" cy="256" fill="#a5e2fb" r="30.883"/><circle cx="257.914" cy="437.836" fill="#a5e2fb" r="30.883"/></svg>